<svg width="44" height="24" viewBox="0 0 44 24" fill="none" xmlns="http://www.w3.org/2000/svg">
<g id="Group 1213">
<g id="Group 1212">
<path id="Union" fill-rule="evenodd" clip-rule="evenodd" d="M44 12C44 18.6274 38.6274 24 32 24C27.8261 24 24.1498 21.869 22 18.6356C19.8502 21.869 16.1739 24 12 24C5.37259 24 7.15971e-06 18.6274 6.58032e-06 12C6.00093e-06 5.37258 5.37259 -4.37782e-07 12 8.9018e-07C16.1739 5.25282e-07 19.8502 2.13102 22 5.36441C24.1498 2.13102 27.8261 3.32132e-06 32 2.95642e-06C38.6274 2.37703e-06 44 5.37259 44 12ZM40 11.998C40 16.4191 36.3497 20 31.8471 20C28.1152 20 24.9707 17.5434 24 14.1865L31.8471 14.1865C33.0747 14.1865 34.0739 13.2063 34.0739 11.998C34.0739 10.7897 33.0747 9.81346 31.8471 9.81346L24 9.81346C24.9666 6.46062 28.1111 4 31.8471 4C36.3497 4 40 7.5809 40 11.998ZM4 12.002C4.00001 7.58089 7.65027 4 12.153 4C15.8848 4 19.0293 6.45661 20 9.81345L12.1529 9.81345C10.9253 9.81345 9.92608 10.7937 9.92608 12.002C9.92608 13.2103 10.9253 14.1865 12.1529 14.1865L20 14.1865C19.0334 17.5394 15.8889 20 12.1529 20C7.65027 20 4 16.4191 4 12.002Z" fill="#4C9DF8"/>
</g>
</g>
</svg>
