<svg width="50" height="12" viewBox="0 0 50 12" fill="none" xmlns="http://www.w3.org/2000/svg">
    <path d="M4.551 6.16c.085.853.879 1.477 1.77 1.477h6.175v3.76c0 .33-.281.6-.625.6H6.398c-3.387 0-6.272-2.53-6.394-5.78C-.121 2.807 2.72 0 6.248 0h5.623c.344 0 .625.27.625.6v3.757H6.248c-1 0-1.794.825-1.697 1.804zM24.763 7.623C24.028 10.149 21.613 12 18.747 12s-5.273-1.842-6.013-4.36h6.013c.94 0 1.706-.732 1.706-1.639 0-.906-.766-1.641-1.706-1.641h-6.01c.74-2.515 3.15-4.357 6.01-4.357s5.278 1.851 6.013 4.375c-.828.114-1.463.798-1.463 1.623 0 .826.638 1.51 1.466 1.62zM49.375.004h-3.291a.613.613 0 0 0-.625.6v10.797c0 .331.28.6.625.6h3.291a.613.613 0 0 0 .625-.6V.604c0-.331-.28-.6-.625-.6z" fill="#A8A9AF"/>
    <path d="M39.061.004H25.604a.615.615 0 0 0-.625.6v3.757h.028c.725 0 1.393.432 1.615 1.098.382 1.138-.487 2.182-1.615 2.182h-.029v3.76c0 .33.282.6.626.6H39.21c3.526 0 6.37-2.806 6.245-6.218-.125-3.411-3.007-5.78-6.395-5.78zm.15 7.637H29.52V4.36h9.691c.944 0 1.707.735 1.707 1.641 0 .907-.763 1.639-1.707 1.639z" fill="#A8A9AF"/>
</svg>
