<svg width="25" height="24" viewBox="0 0 25 24" fill="none" xmlns="http://www.w3.org/2000/svg">
<g id="majesticons:home-line">
<path id="Vector (Stroke)" fill-rule="evenodd" clip-rule="evenodd" d="M11.219 2.43314C11.5868 2.1529 12.0363 2 12.5 2C12.9637 2 13.4132 2.1529 13.781 2.43314L21.656 8.43314C21.9198 8.63409 22.1325 8.89358 22.2784 9.19016C22.4244 9.48668 22.5 9.8128 22.5 10.1429V19.8571C22.5 20.4204 22.2799 20.9638 21.8831 21.3668C21.4859 21.7703 20.9437 22 20.375 22H15.875C15.3063 22 14.7641 21.7703 14.3669 21.3668C13.9701 20.9638 13.75 20.4204 13.75 19.8571V16.4286C13.75 16.3856 13.7331 16.3476 13.7078 16.322C13.6831 16.2969 13.653 16.2857 13.625 16.2857H11.375C11.347 16.2857 11.3169 16.2969 11.2922 16.322C11.2669 16.3476 11.25 16.3856 11.25 16.4286V19.8571C11.25 20.4204 11.0299 20.9638 10.6331 21.3668C10.2359 21.7703 9.69371 22 9.125 22H4.625C4.05629 22 3.51411 21.7703 3.11685 21.3668C2.72012 20.9638 2.5 20.4204 2.5 19.8571V10.1429C2.5 9.8128 2.57561 9.48668 2.72156 9.19016C2.86753 8.89358 3.08021 8.63409 3.34396 8.43314L11.219 2.43314ZM12.5 4C12.4769 4 12.4527 4.00751 12.431 4.024L4.55604 10.024C4.54034 10.036 4.52622 10.0526 4.51598 10.0734C4.50572 10.0942 4.5 10.1181 4.5 10.1429V19.8571C4.5 19.9001 4.51693 19.9381 4.54216 19.9637C4.56685 19.9888 4.59697 20 4.625 20H9.125C9.15303 20 9.18315 19.9888 9.20784 19.9637C9.23307 19.9381 9.25 19.9001 9.25 19.8571V16.4286C9.25 15.8653 9.47012 15.322 9.86685 14.9189C10.2641 14.5154 10.8063 14.2857 11.375 14.2857H13.625C14.1937 14.2857 14.7359 14.5154 15.1331 14.9189C15.5299 15.322 15.75 15.8653 15.75 16.4286V19.8571C15.75 19.9001 15.7669 19.9381 15.7922 19.9637C15.8169 19.9888 15.847 20 15.875 20H20.375C20.403 20 20.4331 19.9888 20.4578 19.9637C20.4831 19.9381 20.5 19.9001 20.5 19.8571V10.1429C20.5 10.1181 20.4943 10.0942 20.484 10.0734C20.4738 10.0525 20.4597 10.036 20.444 10.024L12.569 4.024C12.5473 4.00751 12.5231 4 12.5 4Z" fill="current"/>
</g>
</svg>
