<svg width="20" height="12" viewBox="0 0 20 12" fill="none" xmlns="http://www.w3.org/2000/svg">
<g id="Group 1351">
<path id="Union" fill-rule="evenodd" clip-rule="evenodd" d="M0 5.99906C0 2.98656 2.44211 0.5 5.4546 0.5C7.3522 0.5 9.02348 1.48664 10.0006 2.96988C10.9779 1.48769 12.6486 0.501886 14.5454 0.501886C17.5579 0.501886 20 2.98845 20 6.00094C20 9.01343 17.5579 11.5 14.5454 11.5C12.6478 11.5 10.9765 10.5134 9.99938 9.03012C9.02207 10.5123 7.3514 11.4981 5.4546 11.4981C2.44211 11.4981 0 9.01155 0 5.99906ZM1.81851 5.99894C1.81851 3.97295 3.47774 2.33199 5.52443 2.33199C7.22074 2.33199 8.65008 3.45774 9.09131 4.99603L5.52443 4.99603C4.96641 4.99603 4.51221 5.44523 4.51221 5.99894C4.51221 6.55265 4.96641 7.00002 5.52443 7.00002H9.09131C8.65194 8.53647 7.22259 9.66406 5.52443 9.66406C3.47774 9.66406 1.81851 8.0231 1.81851 5.99894ZM18.1815 6.00106C18.1815 8.02705 16.5223 9.66801 14.4756 9.66801C12.7793 9.66801 11.3499 8.54226 10.9087 7.00397H14.4756C15.0336 7.00397 15.4878 6.55477 15.4878 6.00106C15.4878 5.44735 15.0336 4.99998 14.4756 4.99998L10.9087 4.99998C11.3481 3.46352 12.7774 2.33594 14.4756 2.33594C16.5223 2.33594 18.1815 3.9769 18.1815 6.00106Z" fill="current"/>
</g>
</svg>
