<svg width="18" height="19" viewBox="0 0 18 19" fill="none" xmlns="http://www.w3.org/2000/svg">
<g id="Group">
<path id="Vector (Stroke)" fill-rule="evenodd" clip-rule="evenodd" d="M12.3782 0.87868C12.9408 0.31607 13.7039 0 14.4996 0C15.2952 0 16.0583 0.31607 16.6209 0.87868C17.1835 1.44129 17.4996 2.20435 17.4996 3C17.4996 3.79565 17.1835 4.55871 16.6209 5.12132C16.0583 5.68393 15.2952 6 14.4996 6C13.7039 6 12.9408 5.68393 12.3782 5.12132C11.8156 4.55871 11.4996 3.79565 11.4996 3C11.4996 2.20435 11.8156 1.44129 12.3782 0.87868ZM14.4996 2C14.2343 2 13.98 2.10536 13.7924 2.29289C13.6049 2.48043 13.4996 2.73478 13.4996 3C13.4996 3.26522 13.6049 3.51957 13.7924 3.70711C13.98 3.89464 14.2343 4 14.4996 4C14.7648 4 15.0191 3.89464 15.2067 3.70711C15.3942 3.51957 15.4996 3.26522 15.4996 3C15.4996 2.73478 15.3942 2.48043 15.2067 2.29289C15.0191 2.10536 14.7648 2 14.4996 2ZM3.56284 7.71947C4.46943 7.23006 5.48675 6.98233 6.51685 7.00015C7.06905 7.0097 7.50896 7.46509 7.49941 8.01729C7.48986 8.5695 7.03446 9.0094 6.48226 8.99985C5.79553 8.98797 5.11731 9.15312 4.51292 9.4794C3.90854 9.80567 3.39834 10.2821 3.03148 10.8627C2.66462 11.4434 2.45346 12.1087 2.41832 12.7946C2.38319 13.4806 2.52527 14.164 2.83088 14.7791C3.1365 15.3942 3.59534 15.9202 4.16323 16.3065C4.73112 16.6929 5.38892 16.9264 6.07327 16.9848C6.75762 17.0431 7.44546 16.9243 8.07056 16.6397C8.69565 16.3551 9.23693 15.9143 9.64226 15.3599C9.96819 14.914 10.5939 14.8168 11.0397 15.1427C11.4856 15.4686 11.5828 16.0943 11.2569 16.5401C10.6488 17.3719 9.83693 18.033 8.89929 18.4599C7.96165 18.8868 6.92988 19.0651 5.90336 18.9776C4.87683 18.89 3.89014 18.5397 3.0383 17.9602C2.18647 17.3807 1.4982 16.5916 1.03978 15.669C0.581363 14.7464 0.368241 13.7212 0.420942 12.6923C0.473644 11.6634 0.790393 10.6654 1.34068 9.79446C1.89097 8.92348 2.65626 8.20888 3.56284 7.71947Z" fill="current"/>
<path id="Vector (Stroke)_2" fill-rule="evenodd" clip-rule="evenodd" d="M7.25672 3.02987C7.54886 2.95683 7.85836 3.01933 8.09926 3.20001L12.0993 6.20001C12.5092 6.50747 12.6204 7.07509 12.3568 7.5145L10.2655 11H12.4993C12.803 11 13.0904 11.1381 13.2801 11.3753L17.2801 16.3753C17.6251 16.8066 17.5552 17.4359 17.124 17.7809C16.6927 18.1259 16.0634 18.056 15.7184 17.6247L12.0186 13H8.49926C8.13899 13 7.80657 12.8062 7.62906 12.4927C7.45155 12.1792 7.45641 11.7944 7.64177 11.4855L10.1777 7.25887L7.28004 5.08559L3.7418 5.97015C3.206 6.1041 2.66307 5.77834 2.52912 5.24254C2.39517 4.70675 2.72093 4.16381 3.25672 4.02987L7.25672 3.02987Z" fill="current"/>
</g>
</svg>
