<svg width="22" height="20" viewBox="0 0 22 20" fill="none" xmlns="http://www.w3.org/2000/svg">
<g id="Group">
<path id="Vector (Stroke)" fill-rule="evenodd" clip-rule="evenodd" d="M0 1C0 0.447715 0.447715 0 1 0H21C21.5523 0 22 0.447715 22 1V16C22 16.5523 21.5523 17 21 17H13.9142L11.7071 19.2071C11.3166 19.5976 10.6834 19.5976 10.2929 19.2071L8.08579 17H1C0.447715 17 0 16.5523 0 16V1ZM2 2V15H8.5C8.76522 15 9.01957 15.1054 9.20711 15.2929L11 17.0858L12.7929 15.2929C12.9804 15.1054 13.2348 15 13.5 15H20V2H2Z" fill="#current"/>
<path id="Vector (Stroke)_2" fill-rule="evenodd" clip-rule="evenodd" d="M11 5C10.1716 5 9.5 5.67157 9.5 6.5C9.5 7.32843 10.1716 8 11 8C11.8284 8 12.5 7.32843 12.5 6.5C12.5 5.67157 11.8284 5 11 5ZM7.5 6.5C7.5 4.567 9.067 3 11 3C12.933 3 14.5 4.567 14.5 6.5C14.5 8.433 12.933 10 11 10C9.067 10 7.5 8.433 7.5 6.5Z" fill="#current"/>
<path id="Vector (Stroke)_3" fill-rule="evenodd" clip-rule="evenodd" d="M5.5 13C5.5 10.1312 8.07672 8 11 8C13.9233 8 16.5 10.1312 16.5 13C16.5 13.5523 16.0523 14 15.5 14C14.9477 14 14.5 13.5523 14.5 13C14.5 11.4508 13.0467 10 11 10C8.95328 10 7.5 11.4508 7.5 13C7.5 13.5523 7.05228 14 6.5 14C5.94772 14 5.5 13.5523 5.5 13Z" fill="#current"/>
</g>
</svg>
