<svg width="24" height="24" viewBox="0 0 24 24" fill="none" xmlns="http://www.w3.org/2000/svg">
<g id="Group 1234">
<path id="Exclude" fill-rule="evenodd" clip-rule="evenodd" d="M12 24C18.6274 24 24 18.6274 24 12C24 5.37258 18.6274 4.69686e-07 12 1.04907e-06C5.37258 1.62846e-06 -1.62846e-06 5.37259 -1.04907e-06 12C-4.69686e-07 18.6274 5.37258 24 12 24ZM11.8471 20C16.3497 20 20 16.4191 20 11.998C20 7.5809 16.3497 4 11.8471 4C8.11114 4 4.9666 6.46062 4 9.81346L11.8471 9.81345C13.0747 9.81345 14.0739 10.7897 14.0739 11.998C14.0739 13.2063 13.0747 14.1865 11.8471 14.1865L4 14.1865C4.97068 17.5434 8.11522 20 11.8471 20Z" fill="#FCFCFC"/>
</g>
</svg>
