<svg width="200" height="50" viewBox="0 0 200 50" fill="none" xmlns="http://www.w3.org/2000/svg">
<g id="Layer_2" clip-path="url(#clip0_400_5515)">
<path id="Vector" d="M18.1648 25C18.1648 28.7769 21.2277 31.8284 24.9906 31.8284H49.9938V48C49.9938 49.1046 49.0983 50 47.9938 50H24.9906C11.1889 50 0 38.8069 0 25C0 11.1931 11.1889 0 24.9906 0H47.9938C49.0983 0 49.9938 0.89543 49.9938 2V18.1716H24.9906C21.2277 18.1716 18.1648 21.2231 18.1648 25Z" fill="#4C9DF8"/>
<path id="Vector_2" d="M99.9755 25C99.9755 27.3387 99.6504 29.6023 99.0504 31.7534C96.1125 42.2836 86.4488 50 74.9848 50C63.5209 50 53.9072 42.3087 50.9443 31.8284H74.9848C78.7603 31.8284 81.8107 28.7769 81.8107 25C81.8107 21.2231 78.7603 18.1716 74.9848 18.1716H50.9443C53.9072 7.69135 63.5459 0 74.9848 0C86.4238 0 96.1125 7.71636 99.0504 18.2466C99.6504 20.3977 99.9755 22.6613 99.9755 25Z" fill="#4C9DF8"/>
<path id="Vector_3" d="M198 0C199.104 0 200 0.89543 200 2V48C200 49.1046 199.104 50 198 50H183.835C182.73 50 181.835 49.1046 181.835 48V31.8284C185.61 31.8284 188.673 28.7769 188.673 25C188.673 21.2231 185.61 18.1716 181.835 18.1716V2C181.835 0.895432 182.73 0 183.835 0H198Z" fill="#4C9DF8"/>
<path id="Vector_4" d="M180.911 18.2466C177.973 7.71636 168.309 0 156.845 0H102.025C100.921 0 100.025 0.89543 100.025 2V18.1716C103.801 18.1716 106.864 21.2231 106.864 25C106.864 28.7769 103.801 31.8284 100.025 31.8284V48C100.025 49.1046 100.921 50 102.025 50H156.845C168.309 50 177.973 42.2836 180.911 31.7534C181.511 29.6023 181.836 27.3387 181.836 25C181.836 22.6613 181.511 20.3977 180.911 18.2466ZM156.845 31.8284H118.19V18.1716H156.845C160.62 18.1716 163.683 21.2231 163.683 25C163.683 28.7769 160.62 31.8284 156.845 31.8284Z" fill="#4C9DF8"/>
</g>
<defs>
<clipPath id="clip0_400_5515">
<rect width="200" height="50" fill="white"/>
</clipPath>
</defs>
</svg>
