<svg width="24" height="24" viewBox="0 0 24 24" fill="none" xmlns="http://www.w3.org/2000/svg">
    <path d="M7 15.761c0 .686.553 1.241 1.234 1.239l2.787-.01c.322 0 .632-.13.861-.358L21.4 7.14c.388-.39.601-.909.601-1.46 0-.551-.213-1.07-.6-1.46l-1.627-1.637c-.775-.78-2.127-.776-2.896-.003l-9.512 9.487c-.234.232-.365.55-.365.88v2.813zM18.324 4.044l1.629 1.634-1.638 1.633-1.626-1.636 1.635-1.631zM9.05 13.292l6.182-6.166 1.627 1.637-6.182 6.164-1.627.005v-1.64z" fill="#161718"/>
    <path fill-rule="evenodd" clip-rule="evenodd" d="M4.727 3.818a.91.91 0 0 0-.909.91v14.545c0 .502.407.909.91.909h14.545a.91.91 0 0 0 .909-.91v-9.09a.91.91 0 0 1 1.818 0v9.09A2.727 2.727 0 0 1 19.273 22H4.727A2.727 2.727 0 0 1 2 19.273V4.727A2.727 2.727 0 0 1 4.727 2h9.091a.91.91 0 1 1 0 1.818h-9.09z" fill="#161718"/>
</svg>
