<svg width="24" height="24" viewBox="0 0 24 24" fill="none" xmlns="http://www.w3.org/2000/svg">
    <path fill-rule="evenodd" clip-rule="evenodd" d="m11.893 18.548.003.003.104.094.107-.097c2.614-2.37 4.622-4.2 6-5.886C19.465 11.002 20 9.727 20 8.5 20 6.517 18.478 5 16.5 5c-1.135 0-2.258.539-2.982 1.383L12 8.15l-1.518-1.768C9.758 5.539 8.635 5 7.5 5 5.522 5 4 6.517 4 8.5c0 1.227.536 2.502 1.892 4.162 1.379 1.686 3.387 3.516 6.001 5.886zM10.651 3.922c.507.319.964.71 1.349 1.158.385-.448.842-.84 1.349-1.158A5.958 5.958 0 0 1 16.5 3C19.58 3 22 5.41 22 8.5c0 3.77-3.4 6.86-8.55 11.53l-.777.707a1 1 0 0 1-1.346 0l-.777-.707C5.4 15.36 2 12.27 2 8.5 2 5.41 4.42 3 7.5 3c1.126 0 2.222.339 3.151.922z" fill="#161718"/>
</svg>
