<svg width="24" height="24" viewBox="0 0 24 24" fill="none" xmlns="http://www.w3.org/2000/svg">
    <path fill-rule="evenodd" clip-rule="evenodd" d="M12 10a2 2 0 1 0 0 4 2 2 0 0 0 0-4zm-2.828-.828a4 4 0 1 1 5.656 5.656 4 4 0 0 1-5.656-5.656z" fill="#161718"/>
    <path fill-rule="evenodd" clip-rule="evenodd" d="M3.081 12C4.62 15.556 7.926 18 12 18c4.074 0 7.38-2.444 8.919-6C19.38 8.444 16.074 6 12 6c-4.074 0-7.38 2.444-8.919 6zm-2.012-.364C2.803 7.194 6.884 4 12 4c5.116 0 9.197 3.194 10.931 7.636a1 1 0 0 1 0 .728C21.197 16.805 17.116 20 12 20c-5.116 0-9.197-3.195-10.931-7.636a1 1 0 0 1 0-.728z" fill="#161718"/>
</svg>
