<svg width="32" height="36" viewBox="0 0 32 36" fill="none" xmlns="http://www.w3.org/2000/svg">
<g id="Group">
<path id="Vector" fill-rule="evenodd" clip-rule="evenodd" d="M26.5 25C27.8924 25 29.2277 25.5531 30.2123 26.5377C31.1969 27.5223 31.75 28.8576 31.75 30.25C31.75 31.6424 31.1969 32.9777 30.2123 33.9623C29.2277 34.9469 27.8924 35.5 26.5 35.5C25.1076 35.5 23.7723 34.9469 22.7877 33.9623C21.8031 32.9777 21.25 31.6424 21.25 30.25C21.25 28.8576 21.8031 27.5223 22.7877 26.5377C23.7723 25.5531 25.1076 25 26.5 25ZM22.125 4C24.2136 4 26.2166 4.82969 27.6935 6.30653C29.1703 7.78338 30 9.78642 30 11.875C30 13.9636 29.1703 15.9666 27.6935 17.4435C26.2166 18.9203 24.2136 19.75 22.125 19.75H9.875C8.71468 19.75 7.60188 20.2109 6.78141 21.0314C5.96094 21.8519 5.5 22.9647 5.5 24.125C5.5 25.2853 5.96094 26.3981 6.78141 27.2186C7.60188 28.0391 8.71468 28.5 9.875 28.5H17.75C18.2141 28.5 18.6592 28.6844 18.9874 29.0126C19.3156 29.3407 19.5 29.7859 19.5 30.25C19.5 30.7141 19.3156 31.1593 18.9874 31.4874C18.6592 31.8156 18.2141 32 17.75 32H9.875C7.78642 32 5.78338 31.1703 4.30653 29.6935C2.82968 28.2166 2 26.2136 2 24.125C2 22.0364 2.82968 20.0334 4.30653 18.5565C5.78338 17.0797 7.78642 16.25 9.875 16.25H22.125C23.2853 16.25 24.3981 15.7891 25.2186 14.9686C26.0391 14.1481 26.5 13.0353 26.5 11.875C26.5 10.7147 26.0391 9.60188 25.2186 8.78141C24.3981 7.96094 23.2853 7.5 22.125 7.5H14.25C13.7859 7.5 13.3408 7.31563 13.0126 6.98744C12.6844 6.65925 12.5 6.21413 12.5 5.75C12.5 5.28587 12.6844 4.84075 13.0126 4.51256C13.3408 4.18437 13.7859 4 14.25 4H22.125ZM26.5 28.5C26.0359 28.5 25.5907 28.6844 25.2626 29.0126C24.9344 29.3407 24.75 29.7859 24.75 30.25C24.75 30.7141 24.9344 31.1593 25.2626 31.4874C25.5907 31.8156 26.0359 32 26.5 32C26.9641 32 27.4093 31.8156 27.7374 31.4874C28.0656 31.1593 28.25 30.7141 28.25 30.25C28.25 29.7859 28.0656 29.3407 27.7374 29.0126C27.4093 28.6844 26.9641 28.5 26.5 28.5ZM5.5 0.5C6.89239 0.5 8.22775 1.05312 9.21231 2.03769C10.1969 3.02226 10.75 4.35761 10.75 5.75C10.75 7.14239 10.1969 8.47774 9.21231 9.46231C8.22775 10.4469 6.89239 11 5.5 11C4.10761 11 2.77226 10.4469 1.78769 9.46231C0.803124 8.47774 0.25 7.14239 0.25 5.75C0.25 4.35761 0.803124 3.02226 1.78769 2.03769C2.77226 1.05312 4.10761 0.5 5.5 0.5ZM5.5 4C5.03587 4 4.59075 4.18437 4.26256 4.51256C3.93437 4.84075 3.75 5.28587 3.75 5.75C3.75 6.21413 3.93437 6.65925 4.26256 6.98744C4.59075 7.31563 5.03587 7.5 5.5 7.5C5.96413 7.5 6.40925 7.31563 6.73744 6.98744C7.06563 6.65925 7.25 6.21413 7.25 5.75C7.25 5.28587 7.06563 4.84075 6.73744 4.51256C6.40925 4.18437 5.96413 4 5.5 4Z" fill="current"/>
</g>
</svg>
