<svg width="42" height="42" viewBox="0 0 42 42" fill="none" xmlns="http://www.w3.org/2000/svg">
<g id="material-symbols:swap-calls-rounded">
<path id="Vector" d="M26.5125 33.2495L14 33.2495C12.075 33.2495 10.4271 32.5641 9.05625 31.1932C7.68542 29.8224 7 28.1745 7 26.2495C7 24.3245 7.68542 22.6766 9.05625 21.3057C10.4271 19.9349 12.075 19.2495 14 19.2495L26.25 19.2495C27.2125 19.2495 28.0367 18.9065 28.7227 18.2205C29.4087 17.5345 29.7512 16.7108 29.75 15.7495C29.75 14.787 29.407 13.9627 28.721 13.2767C28.035 12.5907 27.2113 12.2483 26.25 12.2495L13.7375 12.2495L15.2688 13.7807C15.6187 14.1307 15.7867 14.5467 15.7727 15.0285C15.7587 15.5103 15.5762 15.9257 15.225 16.2745C14.875 16.5953 14.4667 16.7627 14 16.7767C13.5333 16.7907 13.125 16.6233 12.775 16.2745L8.225 11.7245C8.05 11.5495 7.92633 11.3599 7.854 11.1557C7.78167 10.9516 7.74492 10.7328 7.74375 10.4995C7.74375 10.2662 7.7805 10.0474 7.854 9.84324C7.9275 9.63907 8.05117 9.44949 8.225 9.27449L12.775 4.72449C13.125 4.37449 13.5333 4.20649 14 4.22049C14.4667 4.23449 14.875 4.40249 15.225 4.72449C15.575 5.07449 15.7576 5.49041 15.7727 5.97224C15.7879 6.45407 15.6199 6.86941 15.2687 7.21824L13.7375 8.74949L26.25 8.74949C28.175 8.74949 29.8229 9.4349 31.1938 10.8057C32.5646 12.1766 33.25 13.8245 33.25 15.7495C33.25 17.6745 32.5646 19.3224 31.1938 20.6932C29.8229 22.0641 28.175 22.7495 26.25 22.7495L14 22.7495C13.0375 22.7495 12.2132 23.0925 11.5272 23.7785C10.8412 24.4645 10.4988 25.2882 10.5 26.2495C10.5 27.212 10.843 28.0362 11.529 28.7222C12.215 29.4082 13.0387 29.7507 14 29.7495L26.5125 29.7495L24.9812 28.2182C24.6312 27.8682 24.4633 27.4523 24.4773 26.9705C24.4913 26.4887 24.6738 26.0733 25.025 25.7245C25.375 25.4037 25.7833 25.2357 26.25 25.2205C26.7167 25.2053 27.125 25.3733 27.475 25.7245L32.025 30.2745C32.2 30.4495 32.3243 30.6391 32.3978 30.8432C32.4713 31.0474 32.5074 31.2662 32.5063 31.4995C32.5063 31.7328 32.4695 31.9516 32.396 32.1557C32.3225 32.3599 32.1988 32.5495 32.025 32.7245L27.475 37.2745C27.125 37.6245 26.7167 37.7925 26.25 37.7785C25.7833 37.7645 25.375 37.5965 25.025 37.2745C24.675 36.9245 24.493 36.5086 24.479 36.0267C24.465 35.5449 24.6324 35.1296 24.9812 34.7807L26.5125 33.2495Z" fill="current"/>
</g>
</svg>
