<svg width="36" height="36" viewBox="0 0 36 36" fill="none" xmlns="http://www.w3.org/2000/svg">
<g id="Group">
<path id="Vector (Stroke)" fill-rule="evenodd" clip-rule="evenodd" d="M14.1441 0.772588C17.4679 0.159536 20.8994 0.571426 23.9837 1.95362C27.0679 3.33582 29.6591 5.62301 31.4134 8.5118C33.1678 11.4006 34.0025 14.7545 33.8068 18.1286C33.7535 19.0476 32.9653 19.7493 32.0463 19.696C31.1274 19.6427 30.4256 18.8546 30.4789 17.9356C30.5594 16.5473 30.4219 15.1632 30.0784 13.8319H4.25639C4.17711 14.1392 4.10864 14.4499 4.05125 14.7635C3.70123 16.6764 3.77542 18.6334 4.25738 20.4989H21.3341C22.2546 20.4989 23.0008 21.2451 23.0008 22.1656C23.0008 23.0861 22.2546 23.8323 21.3341 23.8323H5.62098C6.74069 25.771 8.33467 27.4033 10.2622 28.5701C12.5753 29.9703 15.2593 30.6343 17.9584 30.4739C18.8773 30.4193 19.6665 31.1199 19.7211 32.0388C19.7757 32.9577 19.075 33.7469 18.1561 33.8015C14.7823 34.002 11.4272 33.1721 8.53593 31.4218C5.64465 29.6715 3.35379 27.0836 1.96722 24.0013C0.580645 20.9191 0.163886 17.4881 0.772221 14.1635C1.38056 10.8389 2.98524 7.7778 5.37341 5.38623C7.76159 2.99466 10.8204 1.38564 14.1441 0.772588ZM5.61878 10.4984H28.716C28.6664 10.4125 28.6158 10.3271 28.5642 10.2421C27.1607 7.9311 25.0878 6.10135 22.6204 4.99559C20.153 3.88984 17.4078 3.56032 14.7488 4.05077C12.0898 4.54121 9.64275 5.82843 7.73221 7.74168C6.90589 8.56917 6.19683 9.49685 5.61878 10.4984Z" fill="current"/>
<path id="Vector (Stroke)_2" fill-rule="evenodd" clip-rule="evenodd" d="M17.1667 0.723503C16.3923 0.275761 15.3966 0.519876 14.9194 1.28457C11.9463 6.0488 10.3701 11.5518 10.3701 17.1676C10.3701 22.7834 11.9463 28.2864 14.9194 33.0506C15.4067 33.8316 16.4348 34.0696 17.2158 33.5822C17.9967 33.0949 18.2347 32.0668 17.7474 31.2859C15.1046 27.051 13.7036 22.1594 13.7036 17.1676C13.7036 12.5549 14.8999 8.02782 17.1668 4.02538C20.0959 9.19619 21.2188 15.2091 20.3369 21.108C20.2007 22.0184 20.8284 22.8668 21.7388 23.0029C22.6492 23.139 23.4976 22.5113 23.6337 21.6009C24.689 14.5424 23.1928 7.33893 19.414 1.28447C18.9368 0.519843 17.9411 0.275786 17.1667 0.723503ZM27.6553 22.656C28.3062 22.0051 29.3616 22.0051 30.0125 22.656L35.0127 27.6562C35.6636 28.3071 35.6636 29.3624 35.0127 30.0133C34.3618 30.6642 33.3064 30.6642 32.6555 30.0133L30.5006 27.8584V33.835C30.5006 34.7555 29.7544 35.5017 28.8339 35.5017C27.9134 35.5017 27.1672 34.7555 27.1672 33.835V27.8584L25.0122 30.0133C24.3613 30.6642 23.306 30.6642 22.6551 30.0133C22.0042 29.3624 22.0042 28.3071 22.6551 27.6562L27.6553 22.656Z" fill="current"/>
</g>
</svg>
