<svg width="42" height="42" viewBox="0 0 42 42" fill="none" xmlns="http://www.w3.org/2000/svg">
<g id="ic:round-work-outline">
<path id="Vector" d="M24.5 10.5V7H17.5V10.5H24.5ZM7 15.75V31.5C7 32.4625 7.7875 33.25 8.75 33.25H33.25C34.2125 33.25 35 32.4625 35 31.5V15.75C35 14.7875 34.2125 14 33.25 14H8.75C7.7875 14 7 14.7875 7 15.75ZM35 10.5C36.9425 10.5 38.5 12.0575 38.5 14V33.25C38.5 35.1925 36.9425 36.75 35 36.75H7C5.0575 36.75 3.5 35.1925 3.5 33.25L3.5175 14C3.5175 12.0575 5.0575 10.5 7 10.5H14V7C14 5.0575 15.5575 3.5 17.5 3.5H24.5C26.4425 3.5 28 5.0575 28 7V10.5H35Z" fill="current"/>
</g>
</svg>
