<svg width="40" height="22" viewBox="0 0 40 22" fill="none" xmlns="http://www.w3.org/2000/svg">
<g id="Group">
<path id="Vector (Stroke)" fill-rule="evenodd" clip-rule="evenodd" d="M38.7374 1.01256C39.4209 1.69598 39.4209 2.80402 38.7374 3.48744L23.8624 18.3624C23.179 19.0459 22.071 19.0459 21.3876 18.3624L13.875 10.8499L3.73744 20.9874C3.05402 21.6709 1.94598 21.6709 1.26256 20.9874C0.579146 20.304 0.579146 19.196 1.26256 18.5126L12.6376 7.13756C13.321 6.45415 14.429 6.45415 15.1124 7.13756L22.625 14.6501L36.2626 1.01256C36.946 0.329146 38.054 0.329146 38.7374 1.01256Z" fill="current"/>
<path id="Vector (Stroke)_2" fill-rule="evenodd" clip-rule="evenodd" d="M25.25 2.25C25.25 1.2835 26.0335 0.5 27 0.5H37.5C38.4665 0.5 39.25 1.2835 39.25 2.25V12.75C39.25 13.7165 38.4665 14.5 37.5 14.5C36.5335 14.5 35.75 13.7165 35.75 12.75V4H27C26.0335 4 25.25 3.2165 25.25 2.25Z" fill="current"/>
</g>
</svg>
