<svg width="40" height="35" viewBox="0 0 40 35" fill="none" xmlns="http://www.w3.org/2000/svg">
<g id="Group">
<path id="Vector (Stroke)" fill-rule="evenodd" clip-rule="evenodd" d="M0.75 2C0.75 1.0335 1.5335 0.25 2.5 0.25H37.5C38.4665 0.25 39.25 1.0335 39.25 2V28.25C39.25 29.2165 38.4665 30 37.5 30H25.0999L21.2374 33.8624C20.554 34.5459 19.446 34.5459 18.7626 33.8624L14.9001 30H2.5C1.5335 30 0.75 29.2165 0.75 28.25V2ZM4.25 3.75V26.5H15.625C16.0891 26.5 16.5342 26.6844 16.8624 27.0126L20 30.1501L23.1376 27.0126C23.4658 26.6844 23.9109 26.5 24.375 26.5H35.75V3.75H4.25Z" fill="current"/>
<path id="Vector (Stroke)_2" fill-rule="evenodd" clip-rule="evenodd" d="M20 9C18.5503 9 17.375 10.1753 17.375 11.625C17.375 13.0747 18.5503 14.25 20 14.25C21.4497 14.25 22.625 13.0747 22.625 11.625C22.625 10.1753 21.4497 9 20 9ZM13.875 11.625C13.875 8.24226 16.6173 5.5 20 5.5C23.3827 5.5 26.125 8.24226 26.125 11.625C26.125 15.0077 23.3827 17.75 20 17.75C16.6173 17.75 13.875 15.0077 13.875 11.625Z" fill="current"/>
<path id="Vector (Stroke)_3" fill-rule="evenodd" clip-rule="evenodd" d="M10.375 23C10.375 17.9796 14.8843 14.25 20 14.25C25.1157 14.25 29.625 17.9796 29.625 23C29.625 23.9665 28.8415 24.75 27.875 24.75C26.9085 24.75 26.125 23.9665 26.125 23C26.125 20.2889 23.5818 17.75 20 17.75C16.4182 17.75 13.875 20.2889 13.875 23C13.875 23.9665 13.0915 24.75 12.125 24.75C11.1585 24.75 10.375 23.9665 10.375 23Z" fill="current"/>
</g>
</svg>
