<svg width="42" height="42" viewBox="0 0 42 42" fill="none" xmlns="http://www.w3.org/2000/svg">
<g id="tabler:message-up">
<path id="Vector (Stroke)" fill-rule="evenodd" clip-rule="evenodd" d="M10.5 8.75C9.57174 8.75 8.6815 9.11875 8.02513 9.77513C7.36875 10.4315 7 11.3217 7 12.25V26.25C7 27.1783 7.36875 28.0685 8.02513 28.7249C8.6815 29.3813 9.57174 29.75 10.5 29.75H14C14.9665 29.75 15.75 30.5335 15.75 31.5V33.6592L20.0821 31.0599C20.9109 30.5626 21.9859 30.8314 22.4831 31.6601C22.9804 32.4889 22.7116 33.5639 21.8829 34.0611L14.9004 38.2506C14.3597 38.575 13.6864 38.5835 13.1378 38.2729C12.5891 37.9622 12.25 37.3805 12.25 36.75V33.25H10.5C8.64349 33.25 6.86301 32.5125 5.55025 31.1997C4.2375 29.887 3.5 28.1065 3.5 26.25V12.25C3.5 10.3935 4.2375 8.61301 5.55025 7.30025C6.86301 5.9875 8.64348 5.25 10.5 5.25H31.5C33.3565 5.25 35.137 5.9875 36.4497 7.30025C37.7625 8.61301 38.5 10.3935 38.5 12.25V21.875C38.5 22.8415 37.7165 23.625 36.75 23.625C35.7835 23.625 35 22.8415 35 21.875V12.25C35 11.3217 34.6313 10.4315 33.9749 9.77513C33.3185 9.11875 32.4283 8.75 31.5 8.75H10.5ZM12.25 15.75C12.25 14.7835 13.0335 14 14 14H28C28.9665 14 29.75 14.7835 29.75 15.75C29.75 16.7165 28.9665 17.5 28 17.5H14C13.0335 17.5 12.25 16.7165 12.25 15.75ZM12.25 22.75C12.25 21.7835 13.0335 21 14 21H24.5C25.4665 21 26.25 21.7835 26.25 22.75C26.25 23.7165 25.4665 24.5 24.5 24.5H14C13.0335 24.5 12.25 23.7165 12.25 22.75ZM32.0126 26.7626C32.696 26.0791 33.804 26.0791 34.4874 26.7626L39.7374 32.0126C40.4209 32.696 40.4209 33.804 39.7374 34.4874C39.054 35.1709 37.946 35.1709 37.2626 34.4874L35 32.2249V38.5C35 39.4665 34.2165 40.25 33.25 40.25C32.2835 40.25 31.5 39.4665 31.5 38.5V32.2249L29.2374 34.4874C28.554 35.1709 27.446 35.1709 26.7626 34.4874C26.0791 33.804 26.0791 32.696 26.7626 32.0126L32.0126 26.7626Z" fill="current"/>
</g>
</svg>
