<svg width="30" height="34" viewBox="0 0 30 34" fill="none" xmlns="http://www.w3.org/2000/svg">
<g id="Group">
<path id="Vector (Stroke)" fill-rule="evenodd" clip-rule="evenodd" d="M21.0376 1.78769C22.0222 0.803123 23.3576 0.25 24.75 0.25C26.1423 0.25 27.4777 0.803123 28.4623 1.78769C29.4468 2.77225 30 4.10761 30 5.5C30 6.89239 29.4468 8.22775 28.4623 9.21231C27.4777 10.1969 26.1423 10.75 24.75 10.75C23.3576 10.75 22.0222 10.1969 21.0376 9.21231C20.0531 8.22775 19.5 6.89239 19.5 5.5C19.5 4.10761 20.0531 2.77225 21.0376 1.78769ZM24.75 3.75C24.2858 3.75 23.8407 3.93437 23.5125 4.26256C23.1843 4.59075 23 5.03587 23 5.5C23 5.96413 23.1843 6.40925 23.5125 6.73744C23.8407 7.06563 24.2858 7.25 24.75 7.25C25.2141 7.25 25.6592 7.06563 25.9874 6.73744C26.3156 6.40925 26.5 5.96413 26.5 5.5C26.5 5.03587 26.3156 4.59075 25.9874 4.26256C25.6592 3.93437 25.2141 3.75 24.75 3.75ZM5.61071 13.7591C7.19723 12.9026 8.97755 12.4691 10.7802 12.5003C11.7466 12.517 12.5164 13.3139 12.4997 14.2803C12.483 15.2466 11.686 16.0165 10.7197 15.9997C9.51791 15.979 8.33103 16.268 7.27335 16.8389C6.21567 17.4099 5.32283 18.2436 4.68083 19.2598C4.03882 20.2759 3.66928 21.4402 3.6078 22.6406C3.54631 23.841 3.79496 25.037 4.32978 26.1134C4.8646 27.1898 5.66758 28.1104 6.66139 28.7864C7.65519 29.4625 8.80634 29.8713 10.0039 29.9734C11.2016 30.0755 12.4053 29.8675 13.4992 29.3695C14.5931 28.8714 15.5404 28.1001 16.2497 27.1297C16.8201 26.3495 17.915 26.1794 18.6952 26.7497C19.4755 27.3201 19.6456 28.415 19.0752 29.1953C18.0112 30.6508 16.5904 31.8078 14.9495 32.5548C13.3086 33.3019 11.503 33.6139 9.7066 33.4607C7.91019 33.3076 6.18347 32.6944 4.69276 31.6803C3.20206 30.6662 1.99758 29.2854 1.19535 27.6708C0.393118 26.0561 0.0201543 24.2622 0.112382 22.4616C0.204609 20.661 0.75892 18.9145 1.72193 17.3903C2.68493 15.8661 4.02419 14.6155 5.61071 13.7591Z" fill="current"/>
<path id="Vector (Stroke)_2" fill-rule="evenodd" clip-rule="evenodd" d="M12.076 5.55226C12.5872 5.42445 13.1288 5.53383 13.5504 5.85001L20.5504 11.1C21.2678 11.6381 21.4624 12.6314 21.001 13.4004L17.3412 19.5H21.2504C21.782 19.5 22.2848 19.7417 22.6169 20.1568L29.6169 28.9068C30.2207 29.6615 30.0983 30.7628 29.3436 31.3665C28.5889 31.9703 27.4877 31.8479 26.8839 31.0932L20.4093 23H14.2504C13.6199 23 13.0382 22.6609 12.7276 22.1122C12.4169 21.5636 12.4254 20.8903 12.7498 20.3496L17.1878 12.953L12.1168 9.14978L5.92485 10.6978C4.98721 10.9322 4.03707 10.3621 3.80266 9.42445C3.56825 8.48681 4.13834 7.53667 5.07598 7.30226L12.076 5.55226Z" fill="current"/>
</g>
</svg>
