<svg width="24" height="24" viewBox="0 0 24 24" fill="none" xmlns="http://www.w3.org/2000/svg">
<g id="Frame 1145">
<path id="Union" fill-rule="evenodd" clip-rule="evenodd" d="M12.9998 5C12.9998 4.44772 12.5521 4 11.9998 4C11.4475 4 10.9998 4.44772 10.9998 5V11H5C4.44772 11 4 11.4477 4 12C4 12.5523 4.44772 13 5 13H10.9998V19C10.9998 19.5523 11.4475 20 11.9998 20C12.5521 20 12.9998 19.5523 12.9998 19V13H19C19.5523 13 20 12.5523 20 12C20 11.4477 19.5523 11 19 11H12.9998V5Z" fill="#334259"/>
</g>
</svg>
