<svg width="40" height="51" viewBox="0 0 40 51" fill="none" xmlns="http://www.w3.org/2000/svg">
<g id="Layer_2" clip-path="url(#clip0_959_3236)">
<path id="Vector" d="M19.9994 11.0222C23.0965 11.0222 25.6073 8.5548 25.6073 5.5111C25.6073 2.4674 23.0965 0 19.9994 0C16.9023 0 14.3916 2.4674 14.3916 5.5111C14.3916 8.5548 16.9023 11.0222 19.9994 11.0222Z" fill="white"/>
<path id="Vector_2" d="M38.1241 15.4014C35.6463 16.5496 31.2612 18.1257 28.9701 18.9285C28.0983 19.2341 27.5502 20.083 27.6404 20.9886C28.185 26.4281 29.8627 44.5767 28.4301 48.418C27.6768 50.4372 23.3675 51.7843 22.9107 47.4851C22.6043 44.6051 22.2147 39.6644 22.0112 36.9986C21.9326 35.964 21.0555 35.1652 19.9999 35.1652C18.9442 35.1652 18.0672 35.9646 17.9886 36.9986C17.7851 39.6644 17.3954 44.6045 17.089 47.4851C16.6323 51.7843 12.3229 50.4372 11.5696 48.418C10.1365 44.5767 11.8148 26.4281 12.3594 20.9886C12.4501 20.083 11.9021 19.2341 11.0297 18.9285C8.73855 18.1257 4.35346 16.5496 1.87561 15.4014C-1.58506 13.7969 -0.0177573 9.27326 4.61824 11.0226C7.35393 12.0555 13.119 13.1998 16.1571 13.764C17.4243 13.9992 18.7107 14.1179 19.9999 14.1179C21.2891 14.1179 22.5754 13.9992 23.8427 13.764C26.8807 13.1998 32.6458 12.0555 35.3815 11.0226C40.0175 9.27326 41.5848 13.7969 38.1241 15.4014Z" fill="white"/>
</g>
<defs>
<clipPath id="clip0_959_3236">
<rect width="40" height="50.3226" fill="white"/>
</clipPath>
</defs>
</svg>
