<svg width="24" height="24" viewBox="0 0 24 24" fill="none" xmlns="http://www.w3.org/2000/svg">
    <path fill-rule="evenodd" clip-rule="evenodd" d="M4.929 17.657a1 1 0 0 0 0 1.414c3.905 3.905 10.237 3.905 14.142 0 3.905-3.905 3.905-10.237 0-14.142-3.905-3.905-10.237-3.905-14.142 0a9.962 9.962 0 0 0-2.88 6.07H.999a1 1 0 0 0-.706 1.708l2 2 .002.002a.996.996 0 0 0 1.413-.003l2-2A1 1 0 0 0 5 11h-.938a8 8 0 1 1 2.28 6.657 1 1 0 0 0-1.413 0zM9.999 8a1 1 0 1 1 2 0v4h4a1 1 0 1 1 0 2h-5a1 1 0 0 1-1-1V8z" fill="#161718"/>
</svg>
