<svg width="24" height="24" viewBox="0 0 24 24" fill="none" xmlns="http://www.w3.org/2000/svg">
    <path fill-rule="evenodd" clip-rule="evenodd" d="M6 5a2 2 0 0 0-2 2v10a2 2 0 0 0 2 2h12a2 2 0 0 0 2-2V7a2 2 0 0 0-2-2H6zm-2.828-.828A4 4 0 0 1 6 3h12a4 4 0 0 1 4 4v10a4 4 0 0 1-4 4H6a4 4 0 0 1-4-4V7a4 4 0 0 1 1.172-2.828z" fill="#161718"/>
    <path fill-rule="evenodd" clip-rule="evenodd" d="M6.879 7.879a3 3 0 1 1 4.242 4.242A3 3 0 0 1 6.88 7.88zM9 9a1 1 0 1 0 0 2 1 1 0 0 0 0-2zm5-1a1 1 0 0 1 1-1h2a1 1 0 1 1 0 2h-2a1 1 0 0 1-1-1zm0 4a1 1 0 0 1 1-1h2a1 1 0 1 1 0 2h-2a1 1 0 0 1-1-1zm-8 4a1 1 0 0 1 1-1h10a1 1 0 1 1 0 2H7a1 1 0 0 1-1-1z" fill="#161718"/>
</svg>
