<svg width="22" height="12" viewBox="0 0 22 12" fill="none" xmlns="http://www.w3.org/2000/svg">
<g id="Group 1213">
<g id="Group 1212">
<path id="Union" fill-rule="evenodd" clip-rule="evenodd" d="M22 6C22 9.31371 19.3137 12 16 12C13.913 12 12.0749 10.9345 11 9.3178C9.92508 10.9345 8.08697 12 6 12C2.6863 12 5.4872e-06 9.31371 5.19751e-06 6C4.90782e-06 2.68629 2.6863 -1.17257e-06 6 -5.08585e-07C8.08697 -6.91033e-07 9.92508 1.06551 11 2.6822C12.0749 1.06551 13.913 1.66066e-06 16 1.47821e-06C19.3137 1.18852e-06 22 2.68629 22 6ZM20 5.999C20 8.20955 18.1749 10 15.9235 10C14.0576 10 12.4853 8.77169 12 7.09327L15.9235 7.09328C16.5373 7.09328 17.037 6.60315 17.037 5.999C17.037 5.39485 16.5373 4.90673 15.9235 4.90673L12 4.90673C12.4833 3.23031 14.0556 2 15.9235 2C18.1749 2 20 3.79045 20 5.999ZM2 6.001C2 3.79045 3.82514 2 6.07648 2C7.94239 2 9.51466 3.22831 10 4.90673L6.07647 4.90673C5.46266 4.90673 4.96304 5.39685 4.96304 6.001C4.96304 6.60515 5.46266 7.09327 6.07647 7.09327L10 7.09327C9.5167 8.76969 7.94443 10 6.07647 10C3.82514 10 2 8.20955 2 6.001Z" fill="current"/>
</g>
</g>
</svg>
