<svg width="24" height="24" viewBox="0 0 24 24" fill="none" xmlns="http://www.w3.org/2000/svg">
    <path fill-rule="evenodd" clip-rule="evenodd" d="M12 3.005a3 3 0 0 0-2.527 1.384 1 1 0 0 1-1.062.437 3 3 0 0 0-3.585 3.577 1 1 0 0 1-.441 1.062 3 3 0 0 0 0 5.07 1 1 0 0 1 .441 1.062 3 3 0 0 0 3.585 3.577 1 1 0 0 1 1.063.44 3 3 0 0 0 5.062 0 1 1 0 0 1 1.06-.44 3.001 3.001 0 0 0 3.578-3.585 1 1 0 0 1 .438-1.061 3 3 0 0 0 0-5.055 1 1 0 0 1-.438-1.062 3 3 0 0 0-3.585-3.585 1 1 0 0 1-1.061-.437A3 3 0 0 0 12 3.005zM9.6 1.619a5 5 0 0 1 6.215 1.153 5 5 0 0 1 5.415 5.414 5 5 0 0 1 0 7.628 4.998 4.998 0 0 1-5.402 5.413 5 5 0 0 1-7.642.002 4.999 4.999 0 0 1-5.412-5.4 5 5 0 0 1 0-7.657 5 5 0 0 1 5.413-5.4A5 5 0 0 1 9.6 1.619z" fill="#161718"/>
    <path fill-rule="evenodd" clip-rule="evenodd" d="M15.707 9.293a1 1 0 0 1 0 1.414l-4 4a1 1 0 0 1-1.414 0l-2-2a1 1 0 1 1 1.414-1.414L11 12.586l3.293-3.293a1 1 0 0 1 1.414 0z" fill="#161718"/>
</svg>
