<svg width="24" height="24" viewBox="0 0 24 24" fill="none" xmlns="http://www.w3.org/2000/svg">
    <path fill-rule="evenodd" clip-rule="evenodd" d="M9.36 3.573a2.999 2.999 0 0 1 5.28 0c3.032 1.067 5.217 3.926 5.217 7.302v3.769A3 3 0 0 1 18 20h-2.966A3.288 3.288 0 0 1 12 22a3.288 3.288 0 0 1-3.034-2H6a3 3 0 0 1-1.857-5.356v-3.769c0-3.376 2.185-6.235 5.218-7.302zM12 4a1 1 0 0 0-.953.694l-.163.51-.516.147c-2.45.696-4.225 2.915-4.225 5.524v4.95l-.571.27A1 1 0 0 0 6 18h4.622l.1.888A1.273 1.273 0 0 0 12 20c.674 0 1.21-.5 1.278-1.112l.1-.888H18a1 1 0 0 0 .428-1.904l-.57-.271v-4.95c0-2.61-1.776-4.828-4.226-5.524l-.516-.147-.163-.51A1 1 0 0 0 12 4z" fill="#161718"/>
</svg>
