<svg width="24" height="24" viewBox="0 0 24 24" fill="none" xmlns="http://www.w3.org/2000/svg">
    <path fill-rule="evenodd" clip-rule="evenodd" d="M2 12a5.4 5.4 0 0 1 9.9-2.986 5.4 5.4 0 1 1 0 5.972A5.4 5.4 0 0 1 2 12zm1.8 0c0-1.989 1.643-3.6 3.67-3.6 1.678 0 3.093 1.105 3.53 2.616H7.47A.994.994 0 0 0 6.466 12c0 .543.45.983 1.002.983H11c-.435 1.508-1.85 2.616-3.53 2.616-2.027 0-3.67-1.612-3.67-3.6zM20 12c0 1.99-1.643 3.6-3.67 3.6-1.678 0-3.093-1.105-3.53-2.615h3.53a.994.994 0 0 0 1.003-.985.993.993 0 0 0-1.002-.983H12.8c.435-1.51 1.85-2.616 3.53-2.616 2.027 0 3.67 1.611 3.67 3.599z" fill="#161718"/>
</svg>
