<svg width="24" height="24" viewBox="0 0 24 24" fill="none" xmlns="http://www.w3.org/2000/svg">
    <path fill-rule="evenodd" clip-rule="evenodd" d="M7.721 6.555h.054-.107.053zM6.166 8.11v-.005.01-.005zm1.555 3.111a3.111 3.111 0 1 0 0-6.222 3.111 3.111 0 0 0 0 6.222zm8.556-4.666h.053-.107.054zM14.72 8.11v-.023.046-.023zm1.556 3.111a3.111 3.111 0 1 0 0-6.222 3.111 3.111 0 0 0 0 6.222zM11.999 19H3.47c-1.518 0-2.797-1.276-2.216-2.679a7 7 0 0 1 10.745-2.862 7 7 0 0 1 10.745 2.862c.581 1.403-.698 2.679-2.216 2.679H12z" fill="#161718"/>
</svg>
