<svg width="24" height="24" viewBox="0 0 24 24" fill="none" xmlns="http://www.w3.org/2000/svg">
    <path d="M5 4a1 1 0 0 0-1 1v2a1 1 0 0 1-2 0V5a3 3 0 0 1 3-3h2a1 1 0 0 1 0 2H5z" fill="#fff"/>
    <path fill-rule="evenodd" clip-rule="evenodd" d="M8 12a4 4 0 1 1 8 0 4 4 0 0 1-8 0zm4-2a2 2 0 1 0 0 4 2 2 0 0 0 0-4z" fill="#fff"/>
    <path d="M17 2a1 1 0 1 0 0 2h2a1 1 0 0 1 1 1v2a1 1 0 1 0 2 0V5a3 3 0 0 0-3-3h-2zM21 16a1 1 0 0 1 1 1v2a3 3 0 0 1-3 3h-2a1 1 0 1 1 0-2h2a1 1 0 0 0 1-1v-2a1 1 0 0 1 1-1zM4 17a1 1 0 1 0-2 0v2a3 3 0 0 0 3 3h2a1 1 0 1 0 0-2H5a1 1 0 0 1-1-1v-2z" fill="#fff"/>
</svg>
