<svg width="24" height="24" viewBox="0 0 24 24" fill="none" xmlns="http://www.w3.org/2000/svg">
    <path fill-rule="evenodd" clip-rule="evenodd" d="M12 1a3 3 0 0 0-2.894 2.211A3 3 0 0 0 5 6v5.93a2.998 2.998 0 0 0-3.223.665 3 3 0 0 0-.074 4.172l3.6 3.6.002.002C6.98 22.032 8.931 23 12 23h2a9 9 0 0 0 9-9V8a3 3 0 0 0-4.106-2.789 3 3 0 0 0-4-2A3 3 0 0 0 12 1zm7 7.014V11a1 1 0 1 1-2 0V6a1 1 0 0 0-2 0v4a1 1 0 1 1-2 0V4a1 1 0 0 0-2 0v6.5a1 1 0 1 1-2 0V6a1 1 0 0 0-2 0v7.586l.707.707a1 1 0 1 1-1.414 1.414l-.991-.991a.814.814 0 0 1-.018-.018l-.731-.731a1 1 0 0 0-1.415 1.407l3.577 3.577h.001C8.022 20.249 9.47 21 12 21h2a7 7 0 0 0 7-7V8a1 1 0 0 0-2 0v.014z" fill="#fff"/>
</svg>
