<svg width="24" height="24" viewBox="0 0 24 24" fill="none" xmlns="http://www.w3.org/2000/svg">
    <path fill-rule="evenodd" clip-rule="evenodd" d="M5.903 7.432c.318-.584.576-.913.849-1.112C7.003 6.137 7.356 6 8 6a1 1 0 1 0 0-2c-.956 0-1.753.213-2.427.705-.646.471-1.082 1.131-1.454 1.82a1 1 0 0 0-.042.09l-2.5 6c-.02.048-.036.096-.048.144A5 5 0 1 0 11 15a1 1 0 0 1 2.001 0 5 5 0 1 0 9.47-2.242 1.015 1.015 0 0 0-.047-.143l-2.5-6a1.017 1.017 0 0 0-.042-.09c-.385-.713-.849-1.364-1.502-1.828C17.705 4.22 16.918 4 16 4a1 1 0 1 0 0 2c.582 0 .945.131 1.22.328.29.206.57.543.877 1.104l1.133 2.72a5.009 5.009 0 0 0-5.564 2.353 3 3 0 0 0-3.332 0 4.998 4.998 0 0 0-5.564-2.353l1.133-2.72zM6 12a3 3 0 1 0 0 6 3 3 0 0 0 0-6zm9 3a3 3 0 1 0 6 0 3 3 0 0 0-6 0z" fill="#fff"/>
</svg>
